# xmcd CD database file
#
# Track frame offsets:
#	150
#	15180
#	27769
#	48579
#
# Disc length: 926 seconds
#
# Revision: 0
# Processed by: cddbd v1.5.1PL2 Copyright (c) Steve Scherf et al.
# Submitted via: CDex 1.51
#
DISCID=21039c04
DTITLE=KojiLAW - 深淵に架かる橋 ver0.5
DYEAR=1900
DGENRE=Game
TTITLE0=幕引への序曲
TTITLE1=喧騒と潤い
TTITLE2=神話・具現
TTITLE3=深淵に架かる橋
EXTD=
EXTT0=
EXTT1=
EXTT2=
EXTT3=
PLAYORDER=
